<svg width="12" height="12" viewBox="0 0 12 12" fill="none" xmlns="http://www.w3.org/2000/svg">
<path fill-rule="evenodd" clip-rule="evenodd" d="M6.57709 0.963511L7.74059 3.32101C7.83409 3.51051 8.01509 3.64201 8.22459 3.67251L10.8261 4.05051C11.3531 4.12701 11.5641 4.77551 11.1821 5.14701L9.29959 6.98201C9.22498 7.05478 9.16916 7.14459 9.13693 7.2437C9.10471 7.34282 9.09704 7.44828 9.11459 7.55101L9.55909 10.142C9.64909 10.6675 9.09809 11.0675 8.62659 10.82L6.29959 9.59651C6.20739 9.54799 6.10477 9.52263 6.00059 9.52263C5.8964 9.52263 5.79378 9.54799 5.70159 9.59651L3.37459 10.82C2.90259 11.0675 2.35159 10.6675 2.44159 10.142L2.88609 7.55101C2.90359 7.44828 2.8959 7.34283 2.86368 7.24372C2.83145 7.14462 2.77566 7.05481 2.70109 6.98201L0.818586 5.14701C0.437086 4.77551 0.647586 4.12701 1.17509 4.05051L3.77609 3.67251C3.98559 3.64201 4.16709 3.51051 4.26059 3.32101L5.42359 0.963511C5.65959 0.485511 6.34109 0.485511 6.57709 0.963511Z" fill="#FBB322"/>
</svg>
